# xmcd
#
# Track frame offsets:
#	150
#	12807
#	22347
#	33346
#	44828
#	55587
#	66846
#	77176
#	87373
#	95120
#	106695
#	116257
#	126568
#	136198
#	146266
#	155875
#	164786
#	176462
#	186805
#	192911
#	203487
#	213867
#	223923
#	234357
#	246024
#
# Disc length: 3393 seconds
#
# Revision: 1
# Processed by: cddbd v1.5.2PL0 Copyright (c) Steve Scherf et al.
# Submitted via: audiograbber 1.83.01
#
DISCID=680d3f19
DTITLE=Johnny Cash - The Rebel CD1
DYEAR=2017
DGENRE=Country
TTITLE0=I Walk the Line
TTITLE1=I Got Stripes
TTITLE2=In the Jailhouse Now
TTITLE3=Oh Lonesome Me
TTITLE4=Bonanza
TTITLE5=I Love You Because
TTITLE6=Get Rhythm
TTITLE7=These Hands
TTITLE8=Hey Good Lookin'
TTITLE9=Big River
TTITLE10=Luther Played the Boogie
TTITLE11=Bandana
TTITLE12=Smiling Bill McCall
TTITLE13=The Story of a Broken Heart
TTITLE14=Down the Street to 301
TTITLE15=Second Honeymoon
TTITLE16=Mean Eyed Cat
TTITLE17=Goodbye Little Darlin
TTITLE18=You Tell Me
TTITLE19=Wabash Blues
TTITLE20=Straight as in Love
TTITLE21=Rock Island Line
TTITLE22=The Troubadour
TTITLE23=Little Drummer Boy
TTITLE24=The Rebel Johnny Yuma
EXTD=
EXTT0=
EXTT1=
EXTT2=
EXTT3=
EXTT4=
EXTT5=
EXTT6=
EXTT7=
EXTT8=
EXTT9=
EXTT10=
EXTT11=
EXTT12=
EXTT13=
EXTT14=
EXTT15=
EXTT16=
EXTT17=
EXTT18=
EXTT19=
EXTT20=
EXTT21=
EXTT22=
EXTT23=
EXTT24=
PLAYORDER=
